<svg xmlns="http://www.w3.org/2000/svg" viewBox="0 0 16 16">
  <defs/>
  <g id="Lx" stroke="black" stroke-linejoin="round" stroke-width="2">
    <polygon fill="white" points="0.0,6.25 0.0,3.75 2.1650635094610964,2.5 2.1650635094610964,5.0"/>
    <polygon fill="white" points="0.0,8.75 0.0,6.25 2.1650635094610964,5.0 2.1650635094610964,7.5"/>
    <polygon fill="white" points="0.0,8.75 2.1650635094610964,7.5 4.330127018922193,8.75 2.1650635094610964,10.0"/>
    <polygon fill="white" points="0.0,8.75 0.0,11.25 2.1650635094610964,12.5 2.1650635094610964,10.0"/>
    <polygon fill="white" points="2.1650635094610964,5.0 2.1650635094610964,2.5 4.330127018922193,1.25 4.330127018922193,3.75"/>
    <polygon fill="white" points="2.1650635094610964,5.0 4.330127018922193,3.75 6.49519052838329,5.0 4.330127018922193,6.25"/>
    <polygon fill="white" points="2.1650635094610964,5.0 2.1650635094610964,7.5 4.330127018922193,8.75 4.330127018922193,6.25"/>
    <polygon fill="white" points="2.1650635094610964,10.0 4.330127018922193,8.75 6.49519052838329,10.0 4.330127018922193,11.25"/>
    <polygon fill="white" points="2.1650635094610964,10.0 2.1650635094610964,12.5 4.330127018922193,13.75 4.330127018922193,11.25"/>
    <polygon fill="white" points="4.330127018922193,3.75 4.330127018922193,1.25 6.49519052838329,0.0 6.49519052838329,2.5"/>
    <polygon fill="white" points="4.330127018922193,3.75 6.49519052838329,2.5 8.660254037844386,3.75 6.49519052838329,5.0"/>
    <polygon fill="white" points="4.330127018922193,8.75 4.330127018922193,6.25 6.49519052838329,5.0 6.49519052838329,7.5"/>
    <polygon fill="white" points="4.330127018922193,8.75 6.49519052838329,7.5 8.660254037844386,8.75 6.49519052838329,10.0"/>
    <polygon fill="white" points="4.330127018922193,13.75 4.330127018922193,11.25 6.49519052838329,10.0 6.49519052838329,12.5"/>
    <polygon fill="white" points="4.330127018922193,13.75 6.49519052838329,12.5 8.660254037844386,13.75 6.49519052838329,15.0"/>
    <polygon fill="white" points="6.49519052838329,0.0 6.49519052838329,2.5 8.660254037844386,3.75 8.660254037844386,1.25"/>
    <polygon fill="white" points="6.49519052838329,5.0 8.660254037844386,3.75 10.825317547305481,5.0 8.660254037844386,6.25"/>
    <polygon fill="white" points="6.49519052838329,5.0 6.49519052838329,7.5 8.660254037844386,8.75 8.660254037844386,6.25"/>
    <polygon fill="white" points="6.49519052838329,12.5 6.49519052838329,10.0 8.660254037844386,8.75 8.660254037844386,11.25"/>
    <polygon fill="white" points="6.49519052838329,12.5 8.660254037844386,11.25 10.825317547305481,12.5 8.660254037844386,13.75"/>
    <polygon fill="white" points="8.660254037844386,1.25 8.660254037844386,3.75 10.825317547305481,5.0 10.825317547305481,2.5"/>
    <polygon fill="white" points="8.660254037844386,6.25 10.825317547305481,5.0 12.990381056766578,6.25 10.825317547305481,7.5"/>
    <polygon fill="white" points="8.660254037844386,6.25 8.660254037844386,8.75 10.825317547305481,10.0 10.825317547305481,7.5"/>
    <polygon fill="white" points="8.660254037844386,8.75 8.660254037844386,11.25 10.825317547305481,12.5 10.825317547305481,10.0"/>
    <polygon fill="white" points="10.825317547305481,2.5 10.825317547305481,5.0 12.990381056766578,6.25 12.990381056766578,3.75"/>
    <polygon fill="white" points="10.825317547305481,10.0 10.825317547305481,7.5 12.990381056766578,6.25 12.990381056766578,8.75"/>
    <polygon fill="white" points="10.825317547305481,12.5 10.825317547305481,10.0 12.990381056766578,8.75 12.990381056766578,11.25"/>
  </g>
</svg>
