<svg xmlns="http://www.w3.org/2000/svg" viewBox="0 0 16 16">
  <defs/>
  <g id="Lx" stroke="black" stroke-linejoin="round" stroke-width="0.5">
    <polygon fill="none" points="0.5,6.75 0.5,4.25 2.6650635094610964,3.0 2.6650635094610964,5.5"/>
    <polygon fill="none" points="0.5,9.25 0.5,6.75 2.6650635094610964,5.5 2.6650635094610964,8.0"/>
    <polygon fill="none" points="0.5,9.25 2.6650635094610964,8.0 4.830127018922193,9.25 2.6650635094610964,10.5"/>
    <polygon fill="none" points="0.5,9.25 0.5,11.75 2.6650635094610964,13.0 2.6650635094610964,10.5"/>
    <polygon fill="none" points="2.6650635094610964,5.5 2.6650635094610964,3.0 4.830127018922193,1.75 4.830127018922193,4.25"/>
    <polygon fill="none" points="2.6650635094610964,5.5 4.830127018922193,4.25 6.99519052838329,5.5 4.830127018922193,6.75"/>
    <polygon fill="none" points="2.6650635094610964,5.5 2.6650635094610964,8.0 4.830127018922193,9.25 4.830127018922193,6.75"/>
    <polygon fill="none" points="2.6650635094610964,10.5 4.830127018922193,9.25 6.99519052838329,10.5 4.830127018922193,11.75"/>
    <polygon fill="none" points="2.6650635094610964,10.5 2.6650635094610964,13.0 4.830127018922193,14.25 4.830127018922193,11.75"/>
    <polygon fill="none" points="4.830127018922193,4.25 4.830127018922193,1.75 6.99519052838329,0.5 6.99519052838329,3.0"/>
    <polygon fill="none" points="4.830127018922193,4.25 6.99519052838329,3.0 9.160254037844386,4.25 6.99519052838329,5.5"/>
    <polygon fill="none" points="4.830127018922193,9.25 4.830127018922193,6.75 6.99519052838329,5.5 6.99519052838329,8.0"/>
    <polygon fill="none" points="4.830127018922193,9.25 6.99519052838329,8.0 9.160254037844386,9.25 6.99519052838329,10.5"/>
    <polygon fill="none" points="4.830127018922193,14.25 4.830127018922193,11.75 6.99519052838329,10.5 6.99519052838329,13.0"/>
    <polygon fill="none" points="4.830127018922193,14.25 6.99519052838329,13.0 9.160254037844386,14.25 6.99519052838329,15.5"/>
    <polygon fill="none" points="6.99519052838329,0.5 6.99519052838329,3.0 9.160254037844386,4.25 9.160254037844386,1.75"/>
    <polygon fill="none" points="6.99519052838329,5.5 9.160254037844386,4.25 11.325317547305481,5.5 9.160254037844386,6.75"/>
    <polygon fill="none" points="6.99519052838329,5.5 6.99519052838329,8.0 9.160254037844386,9.25 9.160254037844386,6.75"/>
    <polygon fill="none" points="6.99519052838329,13.0 6.99519052838329,10.5 9.160254037844386,9.25 9.160254037844386,11.75"/>
    <polygon fill="none" points="6.99519052838329,13.0 9.160254037844386,11.75 11.325317547305481,13.0 9.160254037844386,14.25"/>
    <polygon fill="none" points="9.160254037844386,1.75 9.160254037844386,4.25 11.325317547305481,5.5 11.325317547305481,3.0"/>
    <polygon fill="none" points="9.160254037844386,6.75 11.325317547305481,5.5 13.490381056766578,6.75 11.325317547305481,8.0"/>
    <polygon fill="none" points="9.160254037844386,6.75 9.160254037844386,9.25 11.325317547305481,10.5 11.325317547305481,8.0"/>
    <polygon fill="none" points="9.160254037844386,9.25 9.160254037844386,11.75 11.325317547305481,13.0 11.325317547305481,10.5"/>
    <polygon fill="none" points="11.325317547305481,3.0 11.325317547305481,5.5 13.490381056766578,6.75 13.490381056766578,4.25"/>
    <polygon fill="none" points="11.325317547305481,10.5 11.325317547305481,8.0 13.490381056766578,6.75 13.490381056766578,9.25"/>
    <polygon fill="none" points="11.325317547305481,13.0 11.325317547305481,10.5 13.490381056766578,9.25 13.490381056766578,11.75"/>  </g>
</svg>
