<svg width="1280" height="720" xmlns="http://www.w3.org/2000/svg" xmlns:xlink="http://www.w3.org/1999/xlink" overflow="hidden"><g><rect x="0" y="0" width="1280" height="720" fill="#FFFFFF"/><path d="M115.5 333.5C115.5 256.732 177.732 194.5 254.5 194.5 331.268 194.5 393.5 256.732 393.5 333.5 393.5 410.268 331.268 472.5 254.5 472.5 177.732 472.5 115.5 410.268 115.5 333.5Z" stroke="#E97132" stroke-width="3.33333" stroke-miterlimit="8" fill="none" fill-rule="evenodd"/><text font-family="Arial,Arial_MSFontService,sans-serif" font-weight="700" font-size="43" transform="translate(225.784 297)">No</text><text font-family="Arial,Arial_MSFontService,sans-serif" font-weight="700" font-size="43" transform="translate(176.117 349)">trainin</text><text font-family="Arial,Arial_MSFontService,sans-serif" font-weight="700" font-size="43" transform="translate(306.284 349)">g</text><text font-family="Arial,Arial_MSFontService,sans-serif" font-weight="700" font-size="43" transform="translate(210.451 400)">data</text><path d="M501.5 333C501.5 256.509 563.732 194.5 640.5 194.5 717.268 194.5 779.5 256.509 779.5 333 779.5 409.491 717.268 471.5 640.5 471.5 563.732 471.5 501.5 409.491 501.5 333Z" stroke="#E97132" stroke-width="3.33333" stroke-miterlimit="8" fill="none" fill-rule="evenodd"/><text font-family="Arial,Arial_MSFontService,sans-serif" font-weight="700" font-size="43" transform="translate(611.58 297)">No</text><text font-family="Arial,Arial_MSFontService,sans-serif" font-weight="700" font-size="43" transform="translate(558.333 349)">external</text><text font-family="Arial,Arial_MSFontService,sans-serif" font-weight="700" font-size="43" transform="translate(590.333 400)">goals</text><path d="M887.5 333.5C887.5 256.732 949.732 194.5 1026.5 194.5 1103.27 194.5 1165.5 256.732 1165.5 333.5 1165.5 410.268 1103.27 472.5 1026.5 472.5 949.732 472.5 887.5 410.268 887.5 333.5Z" stroke="#E97132" stroke-width="3.33333" stroke-miterlimit="8" fill="none" fill-rule="evenodd"/><text font-family="Arial,Arial_MSFontService,sans-serif" font-weight="700" font-size="43" transform="translate(967.809 297)">N</text><text font-family="Arial,Arial_MSFontService,sans-serif" font-weight="700" font-size="43" transform="translate(998.642 297)">ovel</text><text font-family="Arial,Arial_MSFontService,sans-serif" font-weight="700" font-size="43" transform="translate(927.642 349)">ideas</text><text font-family="Arial,Arial_MSFontService,sans-serif" font-weight="700" font-size="43" transform="translate(1048.31 349)">and</text><text font-family="Arial,Arial_MSFontService,sans-serif" font-weight="700" font-size="43" transform="translate(944.222 400)">insights</text><text font-family="Cambria Math,Cambria Math_MSFontService,sans-serif" font-weight="400" font-size="48" transform="translate(429.64 350)">+</text><text font-family="Cambria Math,Cambria Math_MSFontService,sans-serif" font-weight="400" font-size="48" transform="translate(815.065 350)">=</text></g></svg>