<svg width="816" height="1056" xmlns="http://www.w3.org/2000/svg" xmlns:xlink="http://www.w3.org/1999/xlink" overflow="hidden"><g><rect x="0" y="0" width="816" height="1056" fill="#FFFFFF"/><path d="M265.5 220C265.5 155.107 317.883 102.5 382.5 102.5 447.117 102.5 499.5 155.107 499.5 220 499.5 284.894 447.117 337.5 382.5 337.5 317.883 337.5 265.5 284.894 265.5 220Z" stroke="#E97132" stroke-width="3.33333" stroke-miterlimit="8" fill="none" fill-rule="evenodd"/><text font-family="Arial,Arial_MSFontService,sans-serif" font-weight="700" font-size="36" transform="translate(357.949 190)">No</text><text font-family="Arial,Arial_MSFontService,sans-serif" font-weight="700" font-size="36" transform="translate(315.949 233)">trainin</text><text font-family="Arial,Arial_MSFontService,sans-serif" font-weight="700" font-size="36" transform="translate(425.949 233)">g</text><text font-family="Arial,Arial_MSFontService,sans-serif" font-weight="700" font-size="36" transform="translate(344.949 276)">data</text><path d="M265.5 522C265.5 457.107 317.883 404.5 382.5 404.5 447.117 404.5 499.5 457.107 499.5 522 499.5 586.894 447.117 639.5 382.5 639.5 317.883 639.5 265.5 586.894 265.5 522Z" stroke="#E97132" stroke-width="3.33333" stroke-miterlimit="8" fill="none" fill-rule="evenodd"/><text font-family="Arial,Arial_MSFontService,sans-serif" font-weight="700" font-size="36" transform="translate(357.949 492)">No</text><text font-family="Arial,Arial_MSFontService,sans-serif" font-weight="700" font-size="36" transform="translate(312.949 535)">external</text><text font-family="Arial,Arial_MSFontService,sans-serif" font-weight="700" font-size="36" transform="translate(334.949 578)">goals</text><path d="M265.5 824.5C265.5 759.883 317.883 707.5 382.5 707.5 447.117 707.5 499.5 759.883 499.5 824.5 499.5 889.117 447.117 941.5 382.5 941.5 317.883 941.5 265.5 889.117 265.5 824.5Z" stroke="#E97132" stroke-width="3.33333" stroke-miterlimit="8" fill="none" fill-rule="evenodd"/><text font-family="Arial,Arial_MSFontService,sans-serif" font-weight="700" font-size="36" transform="translate(332.957 794)">N</text><text font-family="Arial,Arial_MSFontService,sans-serif" font-weight="700" font-size="36" transform="translate(358.957 794)">ovel</text><text font-family="Arial,Arial_MSFontService,sans-serif" font-weight="700" font-size="36" transform="translate(298.957 837)">ideas</text><text font-family="Arial,Arial_MSFontService,sans-serif" font-weight="700" font-size="36" transform="translate(400.957 837)">and</text><text font-family="Arial,Arial_MSFontService,sans-serif" font-weight="700" font-size="36" transform="translate(312.957 880)">insights</text><text font-family="Cambria Math,Cambria Math_MSFontService,sans-serif" font-weight="400" font-size="37" transform="translate(368.051 381)">+</text><text font-family="Cambria Math,Cambria Math_MSFontService,sans-serif" font-weight="400" font-size="37" transform="translate(369.046 687)">=</text></g></svg>