<?xml version="1.0" encoding="utf-8" ?>
<svg xmlns="http://www.w3.org/2000/svg" xmlns:ev="http://www.w3.org/2001/xml-events" xmlns:xlink="http://www.w3.org/1999/xlink" baseProfile="full" height="100%" version="1.1" width="100%">
  <defs/>
  <g id="Lx" stroke="black" stroke-linejoin="round" stroke-width="0">
    <polygon fill="#EA4335" points="20.0,145.0 20.0,95.0 63.30127018922193,70.0 63.30127018922193,120.0"/>
    <polygon fill="#EA4335" points="20.0,195.0 20.0,145.0 63.30127018922193,120.0 63.30127018922193,170.0"/>
    <polygon fill="#4285F4" points="20.0,195.0 63.30127018922193,170.0 106.60254037844386,195.0 63.30127018922193,220.0"/>
    <polygon fill="#FBBC05" points="20.0,195.0 20.0,245.0 63.30127018922193,270.0 63.30127018922193,220.0"/>
    <polygon fill="#EA4335" points="63.30127018922193,120.0 63.30127018922193,70.0 106.60254037844386,45.0 106.60254037844386,95.0"/>
    <polygon fill="#4285F4" points="63.30127018922193,120.0 106.60254037844386,95.0 149.9038105676658,120.0 106.60254037844386,145.0"/>
    <polygon fill="#FBBC05" points="63.30127018922193,120.0 63.30127018922193,170.0 106.60254037844386,195.0 106.60254037844386,145.0"/>
    <polygon fill="#4285F4" points="63.30127018922193,220.0 106.60254037844386,195.0 149.9038105676658,220.0 106.60254037844386,245.0"/>
    <polygon fill="#FBBC05" points="63.30127018922193,220.0 63.30127018922193,270.0 106.60254037844386,295.0 106.60254037844386,245.0"/>
    <polygon fill="#EA4335" points="106.60254037844386,95.0 106.60254037844386,45.0 149.9038105676658,20.0 149.9038105676658,70.0"/>
    <polygon fill="#4285F4" points="106.60254037844386,95.0 149.9038105676658,70.0 193.20508075688772,95.0 149.9038105676658,120.0"/>
    <polygon fill="#EA4335" points="106.60254037844386,195.0 106.60254037844386,145.0 149.9038105676658,120.0 149.9038105676658,170.0"/>
    <polygon fill="#4285F4" points="106.60254037844386,195.0 149.9038105676658,170.0 193.20508075688772,195.0 149.9038105676658,220.0"/>
    <polygon fill="#EA4335" points="106.60254037844386,295.0 106.60254037844386,245.0 149.9038105676658,220.0 149.9038105676658,270.0"/>
    <polygon fill="#4285F4" points="106.60254037844386,295.0 149.9038105676658,270.0 193.20508075688772,295.0 149.9038105676658,320.0"/>
    <polygon fill="#FBBC05" points="149.9038105676658,20.0 149.9038105676658,70.0 193.20508075688772,95.0 193.20508075688772,45.0"/>
    <polygon fill="#4285F4" points="149.9038105676658,120.0 193.20508075688772,95.0 236.50635094610965,120.0 193.20508075688772,145.0"/>
    <polygon fill="#FBBC05" points="149.9038105676658,120.0 149.9038105676658,170.0 193.20508075688772,195.0 193.20508075688772,145.0"/>
    <polygon fill="#EA4335" points="149.9038105676658,270.0 149.9038105676658,220.0 193.20508075688772,195.0 193.20508075688772,245.0"/>
    <polygon fill="#4285F4" points="149.9038105676658,270.0 193.20508075688772,245.0 236.50635094610965,270.0 193.20508075688772,295.0"/>
    <polygon fill="#FBBC05" points="193.20508075688772,45.0 193.20508075688772,95.0 236.50635094610965,120.0 236.50635094610965,70.0"/>
    <polygon fill="#4285F4" points="193.20508075688772,145.0 236.50635094610965,120.0 279.80762113533154,145.0 236.50635094610965,170.0"/>
    <polygon fill="#FBBC05" points="193.20508075688772,145.0 193.20508075688772,195.0 236.50635094610965,220.0 236.50635094610965,170.0"/>
    <polygon fill="#FBBC05" points="193.20508075688772,195.0 193.20508075688772,245.0 236.50635094610965,270.0 236.50635094610965,220.0"/>
    <polygon fill="#FBBC05" points="236.50635094610965,70.0 236.50635094610965,120.0 279.80762113533154,145.0 279.80762113533154,95.0"/>
    <polygon fill="#EA4335" points="236.50635094610965,220.0 236.50635094610965,170.0 279.80762113533154,145.0 279.80762113533154,195.0"/>
    <polygon fill="#EA4335" points="236.50635094610965,270.0 236.50635094610965,220.0 279.80762113533154,195.0 279.80762113533154,245.0"/>
  </g>
</svg>
